<?xml version="1.0" encoding="UTF-8" standalone="no"?>
<!DOCTYPE svg PUBLIC "-//W3C//DTD SVG 1.1//EN"
 "http://www.w3.org/Graphics/SVG/1.1/DTD/svg11.dtd">
<!-- Generated by graphviz version 2.26.3 (20100126.1600)
 -->
<!-- Title: G Pages: 1 -->
<svg width="687pt" height="136pt"
 viewBox="0.00 0.00 687.00 136.00" xmlns="http://www.w3.org/2000/svg" xmlns:xlink="http://www.w3.org/1999/xlink">
<g id="graph1" class="graph" transform="scale(1 1) rotate(0) translate(4 132)">
<title>G</title>
<polygon fill="white" stroke="white" points="-4,5 -4,-132 684,-132 684,5 -4,5"/>
<g id="graph2" class="cluster"><title>cluster_PharCompiler</title>
<polyline fill="none" stroke="gray" points="594,-8 659,-8 "/>
<path fill="none" stroke="gray" d="M659,-8C665,-8 671,-14 671,-20"/>
<polyline fill="none" stroke="gray" points="671,-20 671,-108 "/>
<path fill="none" stroke="gray" d="M671,-108C671,-114 665,-120 659,-120"/>
<polyline fill="none" stroke="gray" points="659,-120 594,-120 "/>
<path fill="none" stroke="gray" d="M594,-120C588,-120 582,-114 582,-108"/>
<polyline fill="none" stroke="gray" points="582,-108 582,-20 "/>
<path fill="none" stroke="gray" d="M582,-20C582,-14 588,-8 594,-8"/>
<text text-anchor="middle" x="626.5" y="-106.1" font-family="Times Roman,serif" font-size="11.00" fill="gray">PharCompiler</text>
</g>
<g id="graph3" class="cluster"><title>cluster_PharCompiler\Console</title>
<polyline fill="none" stroke="gray" points="604,-16 650,-16 "/>
<path fill="none" stroke="gray" d="M650,-16C656,-16 662,-22 662,-28"/>
<polyline fill="none" stroke="gray" points="662,-28 662,-78 "/>
<path fill="none" stroke="gray" d="M662,-78C662,-84 656,-90 650,-90"/>
<polyline fill="none" stroke="gray" points="650,-90 604,-90 "/>
<path fill="none" stroke="gray" d="M604,-90C598,-90 592,-84 592,-78"/>
<polyline fill="none" stroke="gray" points="592,-78 592,-28 "/>
<path fill="none" stroke="gray" d="M592,-28C592,-22 598,-16 604,-16"/>
<text text-anchor="middle" x="627" y="-76.1" font-family="Times Roman,serif" font-size="11.00" fill="gray">Console</text>
</g>
<!-- \\PharCompiler\\Console\\Make -->
<g id="node3" class="node"><title>\\PharCompiler\\Console\\Make</title>
<a xlink:href="Make.html" xlink:title="Make" target="_parent">
<polygon fill="none" stroke="black" points="654,-60 600,-60 600,-24 654,-24 654,-60"/>
<text text-anchor="middle" x="627" y="-39.1" font-family="Courier,monospace" font-size="11.00">Make</text>
</a>
</g>
<!-- \\Symfony\\Component\\Console\\Command\\Command -->
<g id="node5" class="node"><title>\\Symfony\\Component\\Console\\Command\\Command</title>
<ellipse fill="none" stroke="black" cx="263" cy="-42" rx="261.837" ry="18.3848"/>
<text text-anchor="middle" x="263" y="-38.4" font-family="Times Roman,serif" font-size="14.00" fill="gray">\Symfony\Component\Console\Command\Command</text>
</g>
<!-- \\PharCompiler\\Console\\Make&#45;&gt;\\Symfony\\Component\\Console\\Command\\Command -->
<g id="edge4" class="edge"><title>\\PharCompiler\\Console\\Make&#45;&gt;\\Symfony\\Component\\Console\\Command\\Command</title>
<path fill="none" stroke="black" d="M599.938,-42C583.793,-42 561.485,-42 535.966,-42"/>
<polygon fill="none" stroke="black" points="535.641,-38.5001 525.641,-42 535.641,-45.5001 535.641,-38.5001"/>
</g>
</g>
</svg>
